<svg 
          width="20" 
          height="20" fill="none" 
          xmlns="http://www.w3.org/2000/svg">
          <path d="M 9.399999618530273 17 L 13.75 8.5 L 10.75 8.5 L 10.75 3 L 6.25 11.5 L 9.399999618530273 11.5 L 9.399999618530273 17 Z M 10 20 C 8.616666674613953 20 7.316667079925537 19.737333238124847 6.100000381469727 19.211999893188477 C 4.883333683013916 18.68733322620392 3.8250001668930054 17.975000739097595 2.9250001907348633 17.075000762939453 C 2.025000214576721 16.17500078678131 1.3126667737960815 15.116666316986084 0.7880001068115234 13.899999618530273 C 0.2626667618751526 12.683332920074463 0 11.383333325386047 0 10 C 0 8.616666674613953 0.2626667618751526 7.316667079925537 0.7880001068115234 6.100000381469727 C 1.3126667737960815 4.883333683013916 2.025000214576721 3.8250001668930054 2.9250001907348633 2.9250001907348633 C 3.8250001668930054 2.025000214576721 4.883333683013916 1.3123332858085632 6.100000381469727 0.7869999408721924 C 7.316667079925537 0.2623332738876343 8.616666674613953 0 10 0 C 11.383333325386047 0 12.683332920074463 0.2623332738876343 13.899999618530273 0.7869999408721924 C 15.116666316986084 1.3123332858085632 16.17500078678131 2.025000214576721 17.075000762939453 2.9250001907348633 C 17.975000739097595 3.8250001668930054 18.68733322620392 4.883333683013916 19.211999893188477 6.100000381469727 C 19.737333238124847 7.316667079925537 20 8.616666674613953 20 10 C 20 11.383333325386047 19.737333238124847 12.683332920074463 19.211999893188477 13.899999618530273 C 18.68733322620392 15.116666316986084 17.975000739097595 16.17500078678131 17.075000762939453 17.075000762939453 C 16.17500078678131 17.975000739097595 15.116666316986084 18.68733322620392 13.899999618530273 19.211999893188477 C 12.683332920074463 19.737333238124847 11.383333325386047 20 10 20 Z M 10 18 C 12.233333349227905 18 14.124999284744263 17.22499918937683 15.674999237060547 15.674999237060547 C 17.22499918937683 14.124999284744263 18 12.233333349227905 18 10 C 18 7.766666650772095 17.22499918937683 5.874999761581421 15.674999237060547 4.324999809265137 C 14.124999284744263 2.7749998569488525 12.233333349227905 2 10 2 C 7.766666650772095 2 5.874999761581421 2.7749998569488525 4.324999809265137 4.324999809265137 C 2.7749998569488525 5.874999761581421 2 7.766666650772095 2 10 C 2 12.233333349227905 2.7749998569488525 14.124999284744263 4.324999809265137 15.674999237060547 C 5.874999761581421 17.22499918937683 7.766666650772095 18 10 18 Z" fill="rgb(28.000000230968,27.000000290572643,31.000000052154064)"/>
        </svg>