<svg 
          width="22.5" 
          height="21.75" fill="none" 
          xmlns="http://www.w3.org/2000/svg">
          <path d="M 10 21.75 L 10 14.5 L 12.5 14.5 L 12.5 16.916666666666664 L 22.5 16.916666666666664 L 22.5 19.333333333333332 L 12.5 19.333333333333332 L 12.5 21.75 L 10 21.75 Z M 0 19.333333333333332 L 0 16.916666666666664 L 7.5 16.916666666666664 L 7.5 19.333333333333332 L 0 19.333333333333332 Z M 5 14.5 L 5 12.083333333333332 L 0 12.083333333333332 L 0 9.666666666666666 L 5 9.666666666666666 L 5 7.25 L 7.5 7.25 L 7.5 14.5 L 5 14.5 Z M 10 12.083333333333332 L 10 9.666666666666666 L 22.5 9.666666666666666 L 22.5 12.083333333333332 L 10 12.083333333333332 Z M 15 7.25 L 15 0 L 17.5 0 L 17.5 2.4166666666666665 L 22.5 2.4166666666666665 L 22.5 4.833333333333333 L 17.5 4.833333333333333 L 17.5 7.25 L 15 7.25 Z M 0 4.833333333333333 L 0 2.4166666666666665 L 12.5 2.4166666666666665 L 12.5 4.833333333333333 L 0 4.833333333333333 Z" fill="rgb(28.000000230968,27.000000290572643,31.000000052154064)"/>
        </svg>