<svg 
          width="22.5" 
          height="28.61753273010254" fill="none" 
          xmlns="http://www.w3.org/2000/svg">
          <path d="M 10 28.61753273010254 L 10 19.07835515340169 L 12.5 19.07835515340169 L 12.5 22.25808101230197 L 22.5 22.25808101230197 L 22.5 25.437806871202255 L 12.5 25.437806871202255 L 12.5 28.61753273010254 L 10 28.61753273010254 Z M 0 25.437806871202255 L 0 22.25808101230197 L 7.5 22.25808101230197 L 7.5 25.437806871202255 L 0 25.437806871202255 Z M 5 19.07835515340169 L 5 15.89862929450141 L 0 15.89862929450141 L 0 12.718903435601128 L 5 12.718903435601128 L 5 9.539177576700846 L 7.5 9.539177576700846 L 7.5 19.07835515340169 L 5 19.07835515340169 Z M 10 15.89862929450141 L 10 12.718903435601128 L 22.5 12.718903435601128 L 22.5 15.89862929450141 L 10 15.89862929450141 Z M 15 9.539177576700846 L 15 0 L 17.5 0 L 17.5 3.179725858900282 L 22.5 3.179725858900282 L 22.5 6.359451717800564 L 17.5 6.359451717800564 L 17.5 9.539177576700846 L 15 9.539177576700846 Z M 0 6.359451717800564 L 0 3.179725858900282 L 12.5 3.179725858900282 L 12.5 6.359451717800564 L 0 6.359451717800564 Z" fill="rgb(28.000000230968,27.000000290572643,31.000000052154064)"/>
        </svg>